<svg xmlns="http://www.w3.org/2000/svg" viewBox="0 0 100 100">
  <defs>
    <linearGradient id="grad" x1="0%" y1="0%" x2="100%" y2="100%">
      <stop offset="0%" style="stop-color:#4f46e5;stop-opacity:1" />
      <stop offset="100%" style="stop-color:#6366f1;stop-opacity:1" />
    </linearGradient>
  </defs>
  <rect width="100" height="100" rx="20" fill="url(#grad)"/>
  <path d="M30 70 L30 35 C30 28 35 25 42 25 L58 25 C65 25 70 28 70 35 L70 40 L60 40 L60 37 C60 34 58 33 55 33 L45 33 C42 33 40 34 40 37 L40 68 C40 71 42 72 45 72 L55 72 C58 72 60 71 60 68 L60 55 L50 55 L50 48 L70 48 L70 70 C70 77 65 80 58 80 L42 80 C35 80 30 77 30 70Z" fill="white"/>
</svg>
